<svg width="1440" height="2315" viewBox="0 0 1440 2315" fill="none" xmlns="http://www.w3.org/2000/svg">
<path fill-rule="evenodd" clip-rule="evenodd" d="M50.7735 -2.6427e-07C17.5188 -2.49942e-07 -9.39262 27.0467 -9.22573 60.301L-0.72938 1753.3C-0.602529 1778.58 19.9239 1799 45.2009 1799C70.5678 1799 91.1317 1819.56 91.1317 1844.93L91.1317 2075.57C91.1317 2108.7 117.995 2135.57 151.132 2135.57L161.99 2135.57C195.127 2135.57 221.99 2162.43 221.99 2195.57L221.99 2255C221.99 2288.14 248.853 2315 281.99 2315L741.792 2315C774.929 2315 801.792 2288.14 801.792 2255L801.792 60C801.792 26.8629 774.929 -3.37858e-07 741.792 -3.23581e-07L50.7735 -2.6427e-07Z" fill="#EDF2F4"/>
<path d="M1455.47 60.5228C1455.76 27.1827 1428.82 0 1395.48 0H710C676.863 0 650 26.8629 650 60V2255C650 2288.14 676.863 2315 710 2315H1166C1199.14 2315 1226 2288.14 1226 2255V2195.57C1226 2162.43 1252.86 2135.57 1286 2135.57H1296C1329.14 2135.57 1356 2108.7 1356 2075.57V1841.35C1356 1817.96 1374.96 1799 1398.35 1799V1799C1421.59 1799 1440.49 1780.26 1440.69 1757.02L1455.47 60.5228Z" fill="#EDF2F4"/>
</svg>
