<svg width="26" height="32" viewBox="0 0 26 32" fill="none" xmlns="http://www.w3.org/2000/svg">
<path d="M12.9219 0H7.28933V1.988H12.9219C18.9509 1.988 23.8559 6.89295 23.8559 12.9219C23.8559 18.9509 18.9509 23.8559 12.9219 23.8559C10.9225 23.8559 8.98653 23.3162 7.28933 22.2932V21.5152C8.94708 22.6072 10.887 23.1932 12.9219 23.1932C18.5856 23.1932 23.1932 18.5856 23.1932 12.9219C23.1932 7.25829 18.5856 2.65066 12.9219 2.65066H4.63866V4.63866H12.9219C17.4894 4.63866 21.2052 8.3546 21.2052 12.9219C21.2052 17.4893 17.4893 21.2052 12.9219 21.2052C10.8104 21.2052 8.82551 20.4235 7.28933 18.9959V18.0496C8.68411 19.5804 10.6928 20.5425 12.9219 20.5425C17.1239 20.5425 20.5425 17.1239 20.5425 12.9219C20.5425 8.71993 17.1239 5.30133 12.9219 5.30133H0V31.1452H1.988V7.28933H12.9219C16.0277 7.28933 18.5545 9.81614 18.5545 12.9219C18.5545 16.0277 16.0277 18.5545 12.9219 18.5545C9.81614 18.5545 7.28933 16.0277 7.28933 12.9219V12.5907H5.30133V25.844H7.28933V24.554C9.03533 25.4014 10.9529 25.844 12.9219 25.844C20.0471 25.844 25.8439 20.0472 25.8439 12.922C25.8439 5.79685 20.0471 0 12.9219 0Z" fill="#5551FF"/>
<path d="M4.63863 9.93994H2.65063V28.4945H4.63863V9.93994Z" fill="#5551FF"/>
</svg>
