<svg width="790" height="2315" viewBox="0 0 790 2315" fill="none" xmlns="http://www.w3.org/2000/svg">
<path d="M805.473 60.5228C805.763 27.1827 778.816 0 745.475 0H59.9999C26.8629 0 -6.10352e-05 26.8629 -6.10352e-05 60V2255C-6.10352e-05 2288.14 26.8629 2315 59.9999 2315H516C549.137 2315 576 2288.14 576 2255V2195.57C576 2162.43 602.863 2135.57 636 2135.57H646C679.137 2135.57 706 2108.7 706 2075.57V1841.35C706 1817.96 724.96 1799 748.348 1799C771.592 1799 790.491 1780.26 790.693 1757.02L805.473 60.5228Z" fill="#EDF2F4"/>
</svg>
