<svg width="184" height="27" viewBox="0 0 184 27" fill="none" xmlns="http://www.w3.org/2000/svg">
<path d="M9.33984 16.4123C9.33984 18.0248 10.5773 19.3248 12.1148 19.3248H15.2523C16.5898 19.3248 17.6773 18.1873 17.6773 16.7873C17.6773 15.2623 17.0148 14.7248 16.0273 14.3748L10.9898 12.6248C10.0023 12.2748 9.33984 11.7373 9.33984 10.2123C9.33984 8.8123 10.4273 7.6748 11.7648 7.6748H14.9023C16.4398 7.6748 17.6773 8.9748 17.6773 10.5873" stroke="#FFC56F" stroke-width="2" stroke-linecap="round" stroke-linejoin="round"/>
<path d="M13.5 6V21" stroke="#FFC56F" stroke-width="2" stroke-linecap="round" stroke-linejoin="round"/>
<path d="M13.5 26C20.4036 26 26 20.4036 26 13.5C26 6.59644 20.4036 1 13.5 1C6.59644 1 1 6.59644 1 13.5C1 20.4036 6.59644 26 13.5 26Z" stroke="#FFC56F" stroke-width="2" stroke-linecap="round" stroke-linejoin="round"/>
<path d="M48 13.5L59 13.5" stroke="#DDDDDD" stroke-width="2" stroke-linecap="round"/>
<path d="M95.0732 3.23301L97.1849 7.49145C97.4729 8.08424 98.2408 8.65284 98.8887 8.76172L102.716 9.40291C105.164 9.81423 105.74 11.6047 103.976 13.371L101.001 16.3713C100.497 16.8794 100.221 17.8593 100.377 18.561L101.228 22.275C101.9 25.2148 100.353 26.352 97.7729 24.8155L94.1853 22.6742C93.5373 22.2871 92.4695 22.2871 91.8095 22.6742L88.2219 24.8155C85.6542 26.352 84.0944 25.2027 84.7663 22.275L85.6182 18.561C85.7742 17.8593 85.4982 16.8794 84.9943 16.3713L82.0186 13.371C80.2668 11.6047 80.8307 9.81423 83.2785 9.40291L87.106 8.76172C87.742 8.65284 88.5099 8.08424 88.7979 7.49145L90.9096 3.23301C92.0615 0.922329 93.9333 0.922329 95.0732 3.23301Z" stroke="#4A3AFF" stroke-width="2" stroke-linecap="round" stroke-linejoin="round"/>
<path d="M127 13.5L138 13.5" stroke="#DDDDDD" stroke-width="2" stroke-linecap="round"/>
<path d="M184.001 12.6573C184.001 13.2209 184.001 13.7846 184.001 14.342C183.963 14.6175 183.932 14.8993 183.894 15.1749C183.575 17.3543 182.749 19.3145 181.359 21.018C179.48 23.3289 177.076 24.7631 174.14 25.3079C173.714 25.3893 173.282 25.4332 172.85 25.4958C172.286 25.4958 171.723 25.4958 171.166 25.4958C171.097 25.4833 171.034 25.4582 170.965 25.452C170.477 25.3831 169.989 25.3392 169.513 25.239C166.664 24.619 164.322 23.1724 162.538 20.8677C160.397 18.0996 159.62 14.9557 160.171 11.5112C160.603 8.83081 161.843 6.55745 163.84 4.72249C166.507 2.26751 169.675 1.22791 173.276 1.56609C175.342 1.76024 177.233 2.48045 178.917 3.69541C181.578 5.61179 183.224 8.17949 183.813 11.411C183.894 11.8244 183.944 12.244 184.001 12.6573ZM176.838 22.377C176.775 22.2705 176.707 22.1641 176.663 22.0513C176.431 21.4564 176.149 20.8802 175.993 20.2665C175.642 18.8949 176.087 17.8052 177.27 17.0287C177.809 16.6779 178.391 16.3836 178.967 16.0893C180.05 15.5319 181.071 14.8931 181.859 13.9412C182.06 13.6969 182.179 13.4589 182.129 13.1395C182.085 12.8514 182.079 12.5634 182.047 12.2753C181.816 10.3151 181.064 8.5803 179.818 7.05847C179.781 7.01463 179.775 6.94574 179.749 6.88937C179.098 8.69303 178.109 9.68253 176.719 10.6532C176.362 10.9038 175.993 11.1417 175.642 11.3985C175.216 11.7054 175.216 11.7367 175.498 12.1751C175.749 12.5696 176.024 12.9517 176.25 13.3587C176.506 13.8159 176.6 14.3107 176.469 14.8305C176.25 15.7135 175.649 16.2396 174.828 16.5402C173.532 17.0224 172.311 16.7907 171.147 16.1206C170.107 15.5194 169.281 14.6864 168.567 13.7345C167.622 12.4757 166.877 11.1167 166.551 9.55728C166.476 9.18152 166.482 8.78697 166.363 8.43C166.063 7.55322 165.349 7.06473 164.573 6.66392C161.329 10.0708 160.804 15.8388 164.216 19.9533C167.628 24.0804 173.175 24.4813 176.838 22.377ZM166.05 5.3237C166.194 5.42391 166.332 5.51785 166.464 5.61805C167.459 6.35705 168.154 7.29645 168.336 8.55525C168.386 8.89343 168.398 9.24414 168.492 9.5698C169.006 11.2733 169.957 12.7074 171.272 13.9036C171.81 14.3921 172.418 14.7741 173.15 14.8931C173.582 14.962 173.989 14.8931 174.371 14.6864C174.659 14.5298 174.691 14.4171 174.528 14.1416C174.421 13.9537 174.284 13.7783 174.171 13.5904C173.971 13.2585 173.739 12.9329 173.582 12.5822C173.232 11.7868 173.344 11.0353 173.952 10.3965C174.196 10.1397 174.49 9.92051 174.778 9.70758C175.223 9.38192 175.699 9.08758 176.137 8.75565C177.089 8.04797 177.746 7.12736 177.978 5.94371C178.103 5.29239 178.165 5.44896 177.64 5.10451C175.204 3.495 172.549 3.01904 169.707 3.65157C168.379 3.93965 167.165 4.50956 166.05 5.3237ZM181.584 16.7844C180.776 17.2228 179.987 17.6487 179.205 18.0808C178.867 18.2687 178.529 18.4628 178.197 18.6695C177.877 18.8699 177.733 19.1642 177.771 19.54C177.827 20.1913 178.097 20.7612 178.416 21.3374C179.9 20.0974 180.958 18.5881 181.584 16.7844Z" fill="#9BE065"/>
</svg>
